# xmcd CD database file generated by Grip 2.95
# 
# Track frame offsets:
#       150
#       16789
#       35742
#       42478
#       65662
#       83935
#       99300
#       109539
#       126915
#       142920
#       162109
#       188955
# 
# Disc length: 2889 seconds
# 
# Revision: 3
# Processed by: cddbd v1.4PL0 Copyright (c) Steve Scherf et al.
# Submitted via: Grip 2.95
# 
DISCID=9c0b470c
DTITLE=Rolf Sebastian - Modern Times Are Bad Times
DYEAR=1900
DGENRE=
TTITLE0=I'm Not Forever Young
TTITLE1=Dustbreathing When No-one Is Around
TTITLE2=My Cow Has Cancer
TTITLE3=After All I've Been Thru
TTITLE4=Cowgirl
TTITLE5=Modern Times Are Bad Times
TTITLE6=Darling
TTITLE7=Deadland Boogie
TTITLE8=Truth Of My Heart
TTITLE9=Modern Times Are Bad Times (Spaztech Version)
TTITLE10=Cowgirl (Imatran Voima Version)
TTITLE11=Deadland Boogie (Legowelt Version)
EXTD=
EXTT0=
EXTT1=
EXTT2=
EXTT3=
EXTT4=
EXTT5=
EXTT6=
EXTT7=
EXTT8=
EXTT9=
EXTT10=
EXTT11=
PLAYORDER=
